<svg width="30" height="30" viewBox="0 0 30 30" fill="none" xmlns="http://www.w3.org/2000/svg">
<path d="M28.9286 25.7143H1.07143C0.787268 25.7143 0.514746 25.8272 0.313814 26.0281C0.112882 26.229 0 26.5016 0 26.7857L0 28.9286C0 29.2127 0.112882 29.4853 0.313814 29.6862C0.514746 29.8871 0.787268 30 1.07143 30H28.9286C29.2127 30 29.4853 29.8871 29.6862 29.6862C29.8871 29.4853 30 29.2127 30 28.9286V26.7857C30 26.5016 29.8871 26.229 29.6862 26.0281C29.4853 25.8272 29.2127 25.7143 28.9286 25.7143ZM28.9286 17.1429H1.07143C0.787268 17.1429 0.514746 17.2557 0.313814 17.4567C0.112882 17.6576 0 17.9301 0 18.2143L0 20.3571C0 20.6413 0.112882 20.9138 0.313814 21.1148C0.514746 21.3157 0.787268 21.4286 1.07143 21.4286H28.9286C29.2127 21.4286 29.4853 21.3157 29.6862 21.1148C29.8871 20.9138 30 20.6413 30 20.3571V18.2143C30 17.9301 29.8871 17.6576 29.6862 17.4567C29.4853 17.2557 29.2127 17.1429 28.9286 17.1429ZM28.9286 8.57143H1.07143C0.787268 8.57143 0.514746 8.68431 0.313814 8.88524C0.112882 9.08617 0 9.3587 0 9.64286L0 11.7857C0 12.0699 0.112882 12.3424 0.313814 12.5433C0.514746 12.7443 0.787268 12.8571 1.07143 12.8571H28.9286C29.2127 12.8571 29.4853 12.7443 29.6862 12.5433C29.8871 12.3424 30 12.0699 30 11.7857V9.64286C30 9.3587 29.8871 9.08617 29.6862 8.88524C29.4853 8.68431 29.2127 8.57143 28.9286 8.57143ZM28.9286 0H1.07143C0.787268 0 0.514746 0.112882 0.313814 0.313814C0.112882 0.514746 0 0.787268 0 1.07143L0 3.21429C0 3.49845 0.112882 3.77097 0.313814 3.9719C0.514746 4.17283 0.787268 4.28571 1.07143 4.28571H28.9286C29.2127 4.28571 29.4853 4.17283 29.6862 3.9719C29.8871 3.77097 30 3.49845 30 3.21429V1.07143C30 0.787268 29.8871 0.514746 29.6862 0.313814C29.4853 0.112882 29.2127 0 28.9286 0Z" fill="#654A75"/>
</svg>
