<svg width="50" height="50" viewBox="0 0 50 50" fill="none" xmlns="http://www.w3.org/2000/svg">
<path d="M48.75 43.75H40V4.96094C40 2.22461 38.318 0 36.25 0H13.7492C11.6813 0 9.99922 2.22461 9.99922 4.96094V43.75H1.25C0.559375 43.75 0 44.4492 0 45.3125V48.4375C0 49.3008 0.559375 50 1.25 50H48.75C49.4406 50 50 49.3008 50 48.4375V45.3125C50 44.4492 49.4406 43.75 48.75 43.75ZM32.4992 28.125C31.1187 28.125 29.9992 26.7256 29.9992 25C29.9992 23.2744 31.1187 21.875 32.4992 21.875C33.8797 21.875 34.9992 23.2744 34.9992 25C35 26.7256 33.8805 28.125 32.4992 28.125Z" fill="#654A75"/>
</svg>
