<svg width="142" height="81" viewBox="0 0 142 81" fill="none" xmlns="http://www.w3.org/2000/svg">
<path d="M33.1721 63.3788C32.6211 65.7421 31.8533 67.6002 30.8686 68.9531C29.8892 70.2834 28.7992 71.1655 27.5986 71.5995C26.3809 72.0039 25.1812 72.0241 23.9993 71.6602C22.862 71.31 21.8015 70.6303 20.8178 69.6211C19.8342 68.6119 19.0309 67.3416 18.408 65.8102C17.7628 64.272 17.393 62.5263 17.2987 60.5732C17.2709 60.0775 17.2754 59.4944 17.3122 58.8238C17.3544 58.1305 17.4279 57.5077 17.5327 56.9554C17.1614 57.523 16.6982 58.0745 16.1431 58.6099C15.5881 59.1453 14.9815 59.543 14.3233 59.8031C13.6704 60.0405 13.026 60.0369 12.3899 59.7923C11.3852 59.3855 10.5334 58.7335 9.83437 57.8363C9.11832 56.9095 8.53385 55.8284 8.08097 54.5929C7.62809 53.3575 7.31055 52.0541 7.12836 50.6828C6.94616 49.3115 6.87811 47.9632 6.92421 46.6378C6.95331 45.2829 7.09767 44.0487 7.35728 42.9352C7.41556 42.6853 7.48234 42.4501 7.55762 42.2297C7.61061 42.0025 7.67209 41.79 7.74207 41.5924C8.37193 39.8136 9.11937 38.6068 9.98441 37.972C10.8271 37.3303 11.6611 37.1366 12.4862 37.3906C13.4451 37.6859 14.2683 38.5118 14.9559 39.8682C15.6488 41.2019 15.9787 42.8622 15.9456 44.8492C15.9278 45.2334 15.895 45.5277 15.8473 45.7323C15.7678 46.0731 15.6612 46.2229 15.5274 46.1817C15.4605 46.1611 15.384 46.028 15.2979 45.7823C15.217 45.5138 15.2105 45.183 15.2783 44.7898C15.3703 44.0875 15.2537 43.3575 14.9285 42.5997C14.6085 41.8193 14.1702 41.1363 13.6136 40.5509C13.04 39.9358 12.4521 39.5356 11.85 39.3502C11.2256 39.1579 10.6183 39.251 10.0282 39.6295C9.42102 39.9783 8.91599 40.7605 8.51308 41.9759C8.4484 42.1509 8.39221 42.3406 8.34453 42.5451C8.27984 42.72 8.22366 42.9097 8.17597 43.1143C7.85808 44.4777 7.72709 45.9109 7.783 47.4137C7.83891 48.9166 8.07741 50.354 8.4985 51.7258C8.91959 53.0976 9.49401 54.273 10.2218 55.2521C10.9495 56.2313 11.8375 56.8822 12.8856 57.2049C13.6215 57.4315 14.2548 57.4317 14.7856 57.2055C15.3216 56.9565 15.7785 56.5857 16.1563 56.0932C16.5394 55.5779 16.8831 55.0262 17.1876 54.438C17.492 53.8498 17.7747 53.3036 18.0357 52.7994C18.3019 52.2725 18.5725 51.8809 18.8474 51.6246C19.1222 51.3682 19.4386 51.3439 19.7965 51.5515C20.0206 51.718 20.1402 51.974 20.1552 52.3196C20.148 52.6583 20.0834 53.089 19.9615 53.6116C19.8768 53.9752 19.7814 54.3843 19.6754 54.8387C19.5525 55.2636 19.4327 55.726 19.3161 56.226C19.1519 56.9304 19.0131 57.6792 18.8999 58.4724C18.7697 59.2361 18.7233 60.0499 18.7609 60.9139C18.8146 62.2212 19.1342 63.4644 19.7198 64.6433C20.2884 65.7925 21.0246 66.7865 21.9286 67.625C22.8155 68.4339 23.783 68.9998 24.8311 69.3225C25.8346 69.6315 26.8348 69.6472 27.8317 69.3697C28.8285 69.0921 29.7323 68.4449 30.543 67.4281C31.3537 66.4113 31.9842 64.9371 32.4346 63.0055C32.8478 61.2331 33.0249 59.4488 32.9656 57.6526C32.9064 55.8564 32.6954 54.1474 32.3326 52.5257C31.9475 50.8971 31.4924 49.4661 30.9673 48.2328C30.5113 47.2156 30.0071 46.354 29.4547 45.6481C28.9075 44.9194 28.3887 44.4795 27.8981 44.3285C27.3629 44.1637 26.9568 44.3674 26.68 44.9398C26.4296 45.3985 26.2375 45.6073 26.1037 45.5661C25.9699 45.5249 25.9454 45.3225 26.0302 44.9589C26.062 44.8225 26.1076 44.6783 26.167 44.5261C26.2264 44.3739 26.3192 44.232 26.4455 44.1004C27.1745 43.2289 27.985 42.9305 28.877 43.2051C30.1481 43.5966 31.2715 44.9289 32.2473 47.2021C32.8574 48.5834 33.3088 50.1838 33.6016 52.0032C33.8775 53.793 33.9766 55.6745 33.8989 57.6477C33.8489 59.6051 33.6066 61.5154 33.1721 63.3788Z" fill="#FFC8DD"/>
<path d="M40.514 50.5291C39.7999 51.3179 39.1343 51.6412 38.5173 51.4991C37.8839 51.3377 37.3122 50.9585 36.8022 50.3613C36.2757 49.7448 35.8093 49.0246 35.4029 48.2006C34.9966 47.3766 34.6637 46.6773 34.4043 46.1028C33.755 44.7235 33.1162 43.2017 32.4877 41.5374C31.8599 39.835 31.2907 38.1239 30.7802 36.4041C30.2702 34.6464 29.8587 33.0232 29.5456 31.5346C29.295 30.3514 29.2345 29.3326 29.3639 28.4783C29.4939 27.586 29.729 26.952 30.069 26.5764C30.3411 26.2759 30.6523 26.1567 31.0028 26.2189C31.3538 26.243 31.7185 26.4766 32.0969 26.9197C32.3601 27.2279 32.6217 27.6502 32.8816 28.1867C33.1585 28.7044 33.4168 29.3551 33.6565 30.1386C34.3446 32.2985 34.9138 34.5899 35.364 37.0127C35.8311 39.4167 35.995 41.9686 35.8555 44.6683C36.0014 44.9938 36.1629 45.3957 36.34 45.8739C36.5177 46.3141 36.7121 46.7545 36.9232 47.1952C37.2654 47.828 37.5928 48.3274 37.9054 48.6934C38.4154 49.2906 38.9041 49.6306 39.3713 49.7135C39.8391 49.7583 40.2261 49.6117 40.5321 49.2737C40.8042 48.9732 41.0027 48.548 41.1278 47.998C41.2364 47.4288 41.2458 46.782 41.1558 46.0578C40.9881 44.9328 40.7696 43.8451 40.5003 42.7948C40.2317 41.7064 40.0178 40.8757 39.8588 40.3026C39.7798 39.978 39.7999 39.75 39.9189 39.6186C40.0039 39.5247 40.0957 39.5355 40.1945 39.6511C40.2767 39.7474 40.3417 39.8815 40.3894 40.0534C40.5654 40.6077 40.7892 41.334 41.0606 42.2321C41.3326 43.0922 41.5448 44.0371 41.6972 45.0667C41.8502 46.0583 41.8526 47.0477 41.7045 48.0349C41.5569 48.9841 41.1601 49.8155 40.514 50.5291ZM35.2699 43.5183C35.2732 42.1294 35.1691 40.6534 34.9575 39.0902C34.7294 37.5077 34.4341 35.9433 34.0717 34.3969C33.7098 32.8125 33.3123 31.3798 32.8791 30.0988C32.7513 29.6784 32.5733 29.2572 32.3452 28.8354C32.1341 28.3947 31.9298 28.0588 31.7324 27.8276C31.502 27.5579 31.3274 27.4888 31.2084 27.6203C31.1403 27.6954 31.1041 27.8851 31.0997 28.1895C31.0789 28.4746 31.106 28.9126 31.1811 29.5035C31.2694 30.3419 31.4717 31.3913 31.7881 32.6516C32.1215 33.8931 32.4957 35.2018 32.9108 36.5777C33.3259 37.9535 33.7504 39.263 34.1841 40.5059C34.6014 41.7296 34.9633 42.7338 35.2699 43.5183Z" fill="#FFC8DD"/>
<path d="M44.262 44.5274C43.506 45.1941 42.8464 45.427 42.2832 45.226C41.7067 45.005 41.2118 44.5851 40.7987 43.9664C40.3722 43.3277 40.0134 42.5976 39.7223 41.7761C39.4312 40.9546 39.1954 40.2587 39.0149 39.6885C38.5566 38.3168 38.1237 36.8117 37.7161 35.1733C37.3132 33.499 36.9663 31.823 36.6753 30.1451C36.3891 28.4314 36.1805 26.8553 36.0495 25.417C35.9437 24.2734 35.9983 23.3057 36.2131 22.5138C36.4326 21.686 36.7223 21.1133 37.0823 20.7959C37.3703 20.5419 37.6753 20.4632 37.9972 20.5599C38.3238 20.6207 38.6404 20.8806 38.9469 21.3397C39.1602 21.6591 39.3594 22.0859 39.5446 22.6203C39.7477 23.1388 39.9189 23.7806 40.0581 24.5459C40.4675 26.6583 40.751 28.8819 40.9085 31.2165C41.0839 33.5353 40.9588 35.9607 40.5329 38.4926C40.6342 38.8156 40.7417 39.2123 40.8556 39.6826C40.9742 40.1172 41.1084 40.5538 41.2583 40.9924C41.5101 41.6266 41.7626 42.1333 42.0158 42.5125C42.429 43.1313 42.8502 43.5051 43.2794 43.634C43.7133 43.727 44.0923 43.6307 44.4163 43.3449C44.7043 43.091 44.937 42.7113 45.1144 42.206C45.2785 41.6808 45.358 41.0716 45.3528 40.3785C45.3184 39.299 45.2323 38.2491 45.0945 37.229C44.9614 36.173 44.8516 35.366 44.7651 34.8081C44.7265 34.4933 44.7702 34.2803 44.8962 34.1692C44.9862 34.0899 45.0712 34.1101 45.1512 34.2298C45.2178 34.3296 45.2641 34.4632 45.2901 34.6306C45.3946 35.1726 45.5251 35.8821 45.6815 36.7589C45.8427 37.5999 45.9384 38.5143 45.9689 39.5023C46.004 40.4544 45.8982 41.3881 45.6513 42.3034C45.4092 43.1829 44.9461 43.9242 44.262 44.5274ZM40.1092 37.344C40.2642 36.0341 40.3278 34.6302 40.3001 33.1324C40.2591 31.6147 40.1532 30.1067 39.9822 28.6085C39.8159 27.0744 39.5995 25.6796 39.3332 24.424C39.2593 24.0135 39.1384 23.5968 38.9705 23.1741C38.8206 22.7354 38.6657 22.3963 38.5058 22.1568C38.3192 21.8774 38.163 21.7932 38.0369 21.9043C37.9649 21.9678 37.9102 22.1429 37.8729 22.4296C37.8221 22.6963 37.7997 23.1125 37.8056 23.6781C37.7967 24.4787 37.8718 25.4907 38.0309 26.714C38.2079 27.9215 38.416 29.1968 38.655 30.54C38.894 31.8831 39.149 33.1645 39.42 34.3843C39.6777 35.584 39.9074 36.5706 40.1092 37.344Z" fill="#FFC8DD"/>
<path d="M51.09 35.7341C50.2167 36.0747 49.34 36.0916 48.4597 35.7848C47.6031 35.4687 46.9989 34.7154 46.6473 33.5249C46.3243 32.4316 46.2395 31.1641 46.3927 29.7225C46.5388 28.2566 46.8731 26.8933 47.3956 25.6327C47.8361 24.5397 48.4022 23.5602 49.0939 22.6942C49.7857 21.8283 50.5092 21.248 51.2644 20.9534C51.7836 20.7508 52.2751 20.7216 52.7388 20.8659C53.2333 21.0252 53.5667 21.3964 53.739 21.9795C53.9184 22.5869 53.8915 23.3425 53.6584 24.2463C53.4252 25.1501 52.989 26.079 52.3495 27.0329C52.0744 27.4383 51.7014 27.8683 51.2303 28.323C50.7592 28.7777 50.2774 29.196 49.7848 29.5778C49.2851 29.9354 48.8582 30.1832 48.5041 30.3213C48.4723 30.6589 48.4691 31.0936 48.4946 31.6256C48.5437 32.1483 48.6436 32.6648 48.7943 33.175C48.9737 33.7824 49.2532 34.283 49.6328 34.6769C50.0123 35.0707 50.5207 35.1433 51.1579 34.8947C51.9367 34.5909 52.5766 34.0839 53.0775 33.3737C53.5784 32.6635 53.9761 31.8716 54.2708 30.9979C54.5583 30.1 54.7632 29.2343 54.8855 28.4009C55.0314 27.5582 55.1388 26.8524 55.2077 26.2837C55.2488 25.8883 55.3874 25.6446 55.6234 25.5525C55.7414 25.5065 55.8184 25.5442 55.8543 25.6657C55.883 25.7628 55.8834 25.8981 55.8557 26.0715C55.7406 26.9293 55.6162 27.8449 55.4826 28.8182C55.3418 29.7673 55.1194 30.7075 54.8155 31.639C54.5044 32.5461 54.0476 33.361 53.4451 34.0838C52.8663 34.7973 52.0812 35.3474 51.09 35.7341ZM48.5582 29.5686C48.8886 29.4397 49.4074 29.1019 50.1144 28.5551C50.8143 27.984 51.4004 27.2948 51.8725 26.4874C52.3211 25.6892 52.6137 24.8977 52.7504 24.1128C52.8798 23.3036 52.8764 22.6682 52.7401 22.2066C52.5822 21.6721 52.3144 21.4785 51.9368 21.6258C51.6536 21.7363 51.3216 22.0826 50.9408 22.6647C50.56 23.2467 50.1401 24.1421 49.6812 25.3508C49.405 26.1088 49.1668 26.9062 48.9665 27.743C48.7662 28.5798 48.6301 29.1883 48.5582 29.5686Z" fill="#FFC8DD"/>
<path d="M82.3023 36.1951C81.499 35.8788 80.7082 35.4672 79.9298 34.9601C79.1732 34.4616 78.4507 33.8762 77.7625 33.204C76.6472 32.0879 75.8651 30.8897 75.4162 29.6096C74.9587 28.3512 74.7805 27.0523 74.8815 25.7129C74.9826 24.3734 75.2895 23.0524 75.8024 21.7497C76.3409 20.3819 77.0423 19.0782 77.9065 17.8386C78.7924 16.6076 79.7829 15.4929 80.878 14.4947C81.9817 13.4748 83.1058 12.626 84.2504 11.9481C84.3207 11.3238 84.4468 10.6212 84.6289 9.84026C84.8327 9.06789 85.0842 8.30176 85.3834 7.54186C85.8364 6.39117 86.3983 5.34604 87.0692 4.40647C87.2757 4.13671 87.4875 4.04457 87.7046 4.13005C87.8566 4.18988 87.8898 4.32836 87.8044 4.54547C87.7531 4.67574 87.7037 4.76916 87.6564 4.82575C87.4848 5.13432 87.3088 5.45375 87.1286 5.78403C86.9702 6.12286 86.8183 6.47683 86.673 6.84592C86.3823 7.5841 86.1394 8.32852 85.9442 9.07918C85.7489 9.82984 85.5859 10.5305 85.4551 11.1812C87.8521 9.74259 90.2676 8.9257 92.7017 8.73049C95.166 8.52211 97.5271 8.86242 99.7851 9.7514C100.371 9.9822 100.923 10.237 101.44 10.5158C103.1 11.3951 104.351 12.3892 105.193 13.4982C106.044 14.5855 106.542 15.7093 106.687 16.8698C106.854 18.0388 106.728 19.1552 106.309 20.219C105.899 21.2612 105.254 22.1984 104.374 23.0308C103.495 23.8632 102.433 24.5232 101.187 25.011C99.9507 25.477 98.5676 25.7098 97.0381 25.7094C95.5388 25.6959 93.9641 25.3643 92.3141 24.7147C91.945 24.5694 91.5802 24.4132 91.2196 24.2462C90.8591 24.0792 90.4745 23.8776 90.0659 23.6415C88.4533 22.7057 87.1081 21.5366 86.0302 20.1343C84.9524 18.7319 84.3254 16.9805 84.1493 14.8799C83.8902 15.0287 83.4761 15.3797 82.9072 15.9331C82.3468 16.4648 81.7308 17.1375 81.0593 17.9515C80.3878 18.7654 79.7255 19.6832 79.0724 20.705C78.4279 21.7051 77.8877 22.7588 77.4518 23.866C77.0329 24.9299 76.768 26.0167 76.6571 27.1266C76.5546 28.2147 76.7055 29.2646 77.1096 30.2763C77.5052 31.3098 78.2274 32.2461 79.2762 33.0853C79.794 33.4898 80.3507 33.8594 80.9461 34.1942C81.5415 34.5289 82.1649 34.8245 82.8162 35.0809C84.0755 35.5767 85.388 35.9054 86.7538 36.0669C88.1195 36.2285 89.4583 36.2039 90.77 35.9931C92.5061 35.7237 93.9677 35.1958 95.155 34.4094C96.3509 33.6013 97.5437 32.6416 98.7336 31.5302C98.9059 31.3473 99.068 31.2858 99.22 31.3456C99.3286 31.3883 99.3529 31.4857 99.2931 31.6377C99.2504 31.7462 99.1556 31.8594 99.009 31.9772C98.1769 32.753 97.3748 33.4528 96.6026 34.0766C95.8389 34.6787 95.0206 35.1966 94.1477 35.6303C93.2748 36.064 92.2434 36.4227 91.0534 36.7065C89.6989 37.0258 88.2654 37.1636 86.753 37.1198C85.2405 37.0761 83.757 36.7678 82.3023 36.1951ZM92.452 23.791C93.9501 24.3808 95.36 24.6851 96.6816 24.704C98.0118 24.7011 99.2088 24.4952 100.272 24.0865C101.366 23.6646 102.284 23.0855 103.025 22.3492C103.788 21.6214 104.349 20.8016 104.708 19.8898C105.059 18.9996 105.186 18.0717 105.09 17.1059C104.993 16.1402 104.633 15.2084 104.009 14.3106C103.414 13.3995 102.5 12.6007 101.266 11.9142C100.814 11.661 100.349 11.4404 99.8713 11.2523C98.3949 10.671 96.8163 10.4131 95.1355 10.4786C93.4849 10.5309 91.8077 10.8737 90.104 11.5069C88.4088 12.1184 86.7778 12.9808 85.211 14.0942C85.2272 16.2823 85.744 18.0907 86.7613 19.5193C87.8004 20.9566 89.1673 22.1342 90.8622 23.0522C91.401 23.3396 91.931 23.5859 92.452 23.791Z" fill="#FFC8DD" fill-opacity="0.8"/>
<path d="M95.4857 44.1443C94.6597 43.822 94.1337 43.3049 93.9076 42.5928C93.6882 41.8583 93.7008 41.0771 93.9453 40.2491C94.2428 39.2421 94.7817 38.2794 95.5621 37.361C96.3009 36.5013 97.1328 35.7776 98.0578 35.1902C98.9829 34.6027 99.9127 34.2043 100.847 33.9949C101.788 33.7631 102.629 33.7914 103.368 34.0797C104.194 34.4019 104.72 34.9191 104.946 35.6312C105.172 36.3433 105.159 37.1245 104.908 37.9748C104.604 39.0042 104.065 39.9669 103.291 40.8629C102.852 41.3654 102.284 41.8925 101.588 42.4444C100.898 42.974 100.16 43.4221 99.3726 43.7888C99.4303 44.0859 99.5523 44.3705 99.7385 44.6428C99.9314 44.8928 100.234 45.0983 100.647 45.2594C101.169 45.4629 101.724 45.43 102.313 45.1605C102.923 44.8995 103.517 44.5321 104.093 44.0581C104.676 43.5618 105.216 43.0485 105.712 42.5183C106.208 41.9881 106.613 41.5597 106.927 41.2333C107.032 41.1244 107.161 41.0997 107.313 41.1591C107.4 41.193 107.452 41.2632 107.469 41.3697C107.493 41.4538 107.449 41.5614 107.337 41.6926C107.108 41.9774 106.742 42.3961 106.239 42.9487C105.743 43.4789 105.172 44.0173 104.526 44.5637C103.886 45.0878 103.211 45.4858 102.5 45.7576C101.79 46.0295 101.086 46.0297 100.391 45.7583C99.9126 45.5718 99.5227 45.3323 99.2212 45.04C98.9263 44.7253 98.7065 44.4025 98.5618 44.0715C97.9996 44.2515 97.4604 44.3531 96.9445 44.3764C96.4285 44.3997 95.9422 44.3223 95.4857 44.1443ZM96.193 43.5966C96.7799 43.8256 97.4962 43.7806 98.3419 43.4617C98.2474 43.1253 98.1996 42.7947 98.1985 42.4698C98.1975 42.145 98.2333 41.8595 98.3061 41.6134C98.425 41.2106 98.6144 40.8976 98.8743 40.6746C99.1558 40.46 99.4923 40.429 99.8835 40.5817C100.166 40.6919 100.361 40.8928 100.469 41.1845C100.605 41.4622 100.634 41.7353 100.554 42.0038C100.535 42.071 100.504 42.1339 100.462 42.1925C100.449 42.2373 100.422 42.289 100.38 42.3476C100.902 41.9771 101.428 41.5086 101.959 40.9421C103.146 39.6331 103.891 38.464 104.195 37.4346C104.347 36.9199 104.368 36.4789 104.258 36.1117C104.149 35.7445 103.898 35.4846 103.507 35.3319C103.05 35.1538 102.491 35.1602 101.829 35.351C101.188 35.5502 100.518 35.888 99.8201 36.3643C99.1436 36.8491 98.4983 37.4334 97.8842 38.1172C97.3117 38.7423 96.8109 39.3705 96.3821 40.0018C95.9815 40.6192 95.7052 41.1852 95.5532 41.6999C95.421 42.1475 95.4022 42.5394 95.4968 42.8758C95.5914 43.2122 95.8234 43.4524 96.193 43.5966Z" fill="#FFC8DD" fill-opacity="0.8"/>
<path d="M109.168 56.7451C108.603 56.4678 108.231 55.9379 108.053 55.1554C108.007 54.927 107.99 54.6483 108.002 54.3195C108.014 53.9907 108.08 53.6491 108.198 53.295C108.264 53.0957 108.341 52.9016 108.428 52.7127C108.523 52.5016 108.639 52.3008 108.775 52.1102C108.32 52.4534 107.793 52.8264 107.196 53.2289C106.627 53.6196 106.017 53.9131 105.367 54.1094C104.745 54.2938 104.13 54.2371 103.522 53.9394C103.313 53.8367 103.104 53.6956 102.895 53.5163C102.389 53.0619 102.083 52.5518 101.98 51.9859C101.897 51.4302 101.959 50.8424 102.165 50.2226C102.394 49.5364 102.77 48.8454 103.295 48.1496C103.84 47.464 104.441 46.8314 105.097 46.2517C105.775 45.6823 106.425 45.2287 107.05 44.891C107.937 44.4243 108.866 44.1587 109.838 44.0943C110.81 44.0299 111.715 44.2031 112.553 44.6139C113.308 44.9835 113.95 45.5429 114.48 46.2921C115.001 45.8263 115.565 45.3044 116.172 44.7263C116.787 44.1261 117.397 43.537 118.004 42.9589C118.611 42.3809 119.154 41.8487 119.633 41.3623C120.12 40.8539 120.491 40.4696 120.749 40.2094C121.321 39.5887 121.777 39.2454 122.116 39.1797C122.483 39.1021 122.865 39.1608 123.264 39.3559C123.494 39.4689 123.734 39.6253 123.985 39.8252C124.263 40.0133 124.542 40.1629 124.822 40.2743C124.652 40.3455 124.261 40.6045 123.649 41.0514C123.065 41.4864 122.349 42.0625 121.501 42.7798C120.652 43.4971 119.729 44.2934 118.73 45.1689C117.76 46.0324 116.782 46.9181 115.797 47.826C114.84 48.7219 113.934 49.578 113.077 50.3941C112.248 51.1983 111.562 51.9048 111.017 52.5137C110.874 52.6497 110.627 52.9534 110.275 53.4246C109.951 53.884 109.723 54.3129 109.59 54.7114C109.494 54.9992 109.472 55.2845 109.524 55.5675C109.584 55.8283 109.76 56.0306 110.053 56.1744C110.451 56.3695 110.919 56.3543 111.458 56.1288C112.024 55.8915 112.6 55.5553 113.183 55.1203C113.774 54.6632 114.316 54.2077 114.809 53.7538C115.309 53.2777 115.691 52.8985 115.956 52.6162C116.142 52.4241 116.308 52.3639 116.454 52.4358C116.58 52.4974 116.61 52.6278 116.543 52.8271C116.536 52.8492 116.521 52.8935 116.499 52.9599C116.484 53.0042 116.445 53.0492 116.381 53.0951C116.038 53.4675 115.584 53.9147 115.02 54.4367C114.477 54.9689 113.871 55.4702 113.202 55.9408C112.534 56.4114 111.849 56.7456 111.15 56.9435C110.457 57.1193 109.797 57.0531 109.168 56.7451ZM104.063 53.0843C104.357 53.228 104.779 53.2417 105.329 53.1253C105.887 52.9867 106.543 52.6644 107.297 52.1582C108.179 51.5603 109.218 50.782 110.415 49.8235C111.612 48.865 112.824 47.8239 114.052 46.7002C113.868 46.301 113.598 46.0142 113.242 45.8396C112.655 45.5521 111.899 45.5164 110.974 45.7326C110.07 45.959 109.124 46.3455 108.138 46.8921C107.172 47.4489 106.308 48.0682 105.544 48.7499C105.023 49.2157 104.605 49.6672 104.289 50.1044C103.993 50.552 103.783 50.9639 103.657 51.3402C103.362 52.2257 103.497 52.807 104.063 53.0843Z" fill="#FFC8DD" fill-opacity="0.8"/>
<path d="M112.534 62.887C112.1 62.1407 111.929 61.2944 112.022 60.3482C112.126 59.4221 112.631 58.611 113.538 57.9146C114.371 57.2751 115.388 56.8149 116.59 56.5339C117.81 56.2387 118.981 56.1569 120.101 56.2885C121.071 56.3903 121.97 56.648 122.799 57.0615C123.629 57.4751 124.231 58.0046 124.606 58.6501C124.864 59.0939 124.976 59.5624 124.942 60.0557C124.9 60.5833 124.658 61.0177 124.214 61.3587C123.751 61.714 123.131 61.9132 122.353 61.9563C121.575 61.9993 120.74 61.8526 119.848 61.5161C119.469 61.3698 119.051 61.1358 118.597 60.8139C118.142 60.4921 117.715 60.1489 117.315 59.7845C116.935 59.4058 116.656 59.0652 116.48 58.7626C116.2 58.8323 115.845 58.9588 115.416 59.1421C114.999 59.3457 114.596 59.5967 114.208 59.8951C113.745 60.2504 113.387 60.671 113.134 61.1569C112.881 61.6428 112.913 62.1581 113.23 62.7028C113.617 63.3684 114.145 63.8386 114.813 64.1132C115.481 64.3878 116.198 64.538 116.962 64.5637C117.745 64.5752 118.487 64.5161 119.188 64.3863C119.901 64.2768 120.495 64.1707 120.97 64.068C121.3 63.9901 121.523 64.052 121.64 64.2537C121.699 64.3546 121.682 64.4405 121.59 64.5116C121.516 64.5684 121.405 64.6092 121.259 64.634C120.54 64.7779 119.772 64.9301 118.955 65.0905C118.156 65.2367 117.351 65.3011 116.537 65.2836C115.743 65.252 114.997 65.0514 114.3 64.6819C113.615 64.3325 113.027 63.7342 112.534 62.887ZM117.103 58.5907C117.267 58.8731 117.635 59.2761 118.208 59.7996C118.798 60.309 119.465 60.6725 120.207 60.8903C120.938 61.0879 121.635 61.1361 122.299 61.0348C122.981 60.9193 123.498 60.7265 123.85 60.4565C124.257 60.1439 124.367 59.8262 124.179 59.5034C124.038 59.2614 123.697 59.0422 123.154 58.846C122.612 58.6498 121.807 58.509 120.74 58.4237C120.073 58.3815 119.381 58.3879 118.664 58.4429C117.946 58.4979 117.426 58.5472 117.103 58.5907Z" fill="#FFC8DD"/>
</svg>
