<svg width="125" height="111" viewBox="0 0 125 111" fill="none" xmlns="http://www.w3.org/2000/svg">
<path d="M34.0642 52.4539C33.5132 54.8172 32.7453 56.6753 31.7606 58.0282C30.7813 59.3584 29.6912 60.2406 28.4906 60.6746C27.273 61.079 26.0732 61.0992 24.8913 60.7353C23.754 60.3851 22.6935 59.7053 21.7099 58.6961C20.7262 57.6869 19.9229 56.4167 19.3 54.8853C18.6548 53.3471 18.2851 51.6014 18.1907 49.6483C18.1629 49.1526 18.1674 48.5695 18.2043 47.8989C18.2464 47.2055 18.3199 46.5827 18.4248 46.0305C18.0534 46.5981 17.5902 47.1496 17.0352 47.685C16.4801 48.2204 15.8735 48.6181 15.2153 48.8782C14.5625 49.1155 13.918 49.1119 13.2819 48.8673C12.2773 48.4606 11.4254 47.8086 10.7264 46.9114C10.0103 45.9846 9.42588 44.9034 8.973 43.668C8.52012 42.4325 8.20258 41.1292 8.02038 39.7579C7.83819 38.3866 7.77014 37.0383 7.81624 35.7129C7.84534 34.358 7.9897 33.1238 8.24931 32.0103C8.30759 31.7603 8.37437 31.5252 8.44965 31.3048C8.50263 31.0776 8.56412 30.8651 8.6341 30.6675C9.26396 28.8886 10.0114 27.6818 10.8764 27.0471C11.7192 26.4054 12.5531 26.2116 13.3782 26.4657C14.3371 26.761 15.1603 27.5868 15.8479 28.9433C16.5408 30.277 16.8707 31.9373 16.8377 33.9243C16.8198 34.3085 16.787 34.6028 16.7393 34.8073C16.6598 35.1482 16.5532 35.298 16.4194 35.2568C16.3525 35.2362 16.276 35.1031 16.1899 34.8573C16.1091 34.5889 16.1025 34.2581 16.1703 33.8649C16.2624 33.1626 16.1458 32.4326 15.8205 31.6748C15.5006 30.8943 15.0623 30.2114 14.5056 29.6259C13.932 29.0109 13.3441 28.6107 12.742 28.4253C12.1176 28.233 11.5104 28.3261 10.9202 28.7045C10.313 29.0534 9.80801 29.8355 9.40511 31.051C9.34043 31.2259 9.28424 31.4157 9.23656 31.6202C9.17187 31.7951 9.11569 31.9848 9.068 32.1893C8.75011 33.5528 8.61912 34.9859 8.67503 36.4888C8.73094 37.9917 8.96944 39.4291 9.39053 40.8009C9.81162 42.1726 10.386 43.3481 11.1138 44.3272C11.8416 45.3063 12.7295 45.9573 13.7776 46.28C14.5135 46.5066 15.1468 46.5068 15.6776 46.2806C16.2137 46.0316 16.6706 45.6608 17.0483 45.1683C17.4314 44.653 17.7751 44.1012 18.0796 43.513C18.384 42.9248 18.6667 42.3787 18.9277 41.8745C19.1939 41.3476 19.4645 40.956 19.7394 40.6996C20.0143 40.4433 20.3307 40.419 20.6886 40.6266C20.9127 40.793 21.0322 41.049 21.0473 41.3946C21.04 41.7334 20.9754 42.1641 20.8536 42.6867C20.7688 43.0503 20.6734 43.4593 20.5675 43.9138C20.4445 44.3387 20.3247 44.8011 20.2082 45.301C20.0439 46.0055 19.9052 46.7543 19.7919 47.5475C19.6617 48.3111 19.6154 49.1249 19.6529 49.9889C19.7066 51.2963 20.0262 52.5394 20.6118 53.7183C21.1804 54.8676 21.9167 55.8615 22.8206 56.7001C23.7075 57.509 24.6751 58.0748 25.7231 58.3976C26.7266 58.7066 27.7268 58.7223 28.7237 58.4448C29.7205 58.1672 30.6243 57.52 31.435 56.5032C32.2457 55.4863 32.8763 54.0121 33.3266 52.0806C33.7399 50.3082 33.9169 48.5238 33.8577 46.7277C33.7984 44.9315 33.5874 43.2225 33.2246 41.6008C32.8395 39.9721 32.3844 38.5412 31.8593 37.3078C31.4033 36.2906 30.8991 35.4291 30.3467 34.7231C29.7996 33.9945 29.2807 33.5546 28.7901 33.4035C28.2549 33.2387 27.8489 33.4425 27.572 34.0149C27.3217 34.4736 27.1296 34.6823 26.9958 34.6411C26.862 34.5999 26.8375 34.3975 26.9222 34.034C26.954 33.8976 26.9996 33.7533 27.059 33.6011C27.1184 33.4489 27.2112 33.307 27.3375 33.1754C28.0665 32.3039 28.877 32.0055 29.769 32.2802C31.0401 32.6716 32.1636 34.004 33.1393 36.2772C33.7494 37.6585 34.2008 39.2588 34.4937 41.0782C34.7695 42.868 34.8686 44.7496 34.7909 46.7228C34.7409 48.6802 34.4986 50.5905 34.0642 52.4539Z" fill="black"/>
<path d="M39.6575 46.3068C38.9997 47.0333 38.3867 47.3311 37.8185 47.2003C37.235 47.0516 36.7084 46.7023 36.2387 46.1523C35.7538 45.5845 35.3242 44.9211 34.9499 44.1622C34.5757 43.4032 34.2691 42.7591 34.0302 42.23C33.4321 40.9596 32.8437 39.5579 32.2649 38.025C31.6866 36.457 31.1623 34.881 30.6921 33.297C30.2224 31.678 29.8434 30.183 29.555 28.8119C29.3242 27.7221 29.2684 26.7838 29.3877 25.9969C29.5075 25.175 29.7239 24.5911 30.0371 24.2451C30.2877 23.9684 30.5744 23.8586 30.8972 23.9158C31.2204 23.938 31.5563 24.1532 31.9049 24.5613C32.1473 24.8452 32.3883 25.2342 32.6277 25.7283C32.8827 26.2052 33.1206 26.8044 33.3413 27.5261C33.9752 29.5155 34.4994 31.6259 34.914 33.8575C35.3443 36.0718 35.4952 38.4222 35.3668 40.9087C35.5012 41.2086 35.6499 41.5787 35.8131 42.0192C35.9767 42.4246 36.1558 42.8302 36.3502 43.2361C36.6654 43.819 36.9669 44.2789 37.2549 44.6161C37.7246 45.1661 38.1747 45.4793 38.605 45.5556C39.0359 45.5969 39.3923 45.4619 39.6742 45.1505C39.9248 44.8737 40.1076 44.4821 40.2228 43.9756C40.3229 43.4513 40.3315 42.8556 40.2487 42.1885C40.0942 41.1523 39.8929 40.1505 39.6449 39.1831C39.3975 38.1807 39.2005 37.4155 39.054 36.8877C38.9813 36.5887 38.9997 36.3787 39.1094 36.2576C39.1877 36.1711 39.2723 36.1811 39.3632 36.2876C39.439 36.3763 39.4988 36.4998 39.5428 36.6582C39.7049 37.1687 39.9109 37.8376 40.1609 38.6649C40.4115 39.4571 40.6069 40.3274 40.7473 41.2757C40.8882 42.189 40.8904 43.1002 40.754 44.0095C40.6181 44.8838 40.2526 45.6495 39.6575 46.3068ZM34.8274 39.8495C34.8305 38.5703 34.7346 37.2108 34.5397 35.771C34.3296 34.3134 34.0576 32.8725 33.7238 31.4483C33.3905 29.9889 33.0243 28.6693 32.6253 27.4895C32.5076 27.1022 32.3437 26.7143 32.1336 26.3258C31.9392 25.9199 31.751 25.6105 31.5692 25.3976C31.357 25.1492 31.1961 25.0855 31.0865 25.2066C31.0239 25.2758 30.9905 25.4505 30.9865 25.7309C30.9673 25.9935 30.9923 26.3969 31.0614 26.9411C31.1427 27.7133 31.3291 28.6799 31.6205 29.8407C31.9276 30.9842 32.2723 32.1896 32.6546 33.4568C33.0369 34.7241 33.4278 35.9301 33.8273 37.075C34.2117 38.2021 34.545 39.1269 34.8274 39.8495Z" fill="black"/>
<path d="M43.6236 42.703C42.8886 43.3512 42.2473 43.5776 41.6998 43.3821C41.1392 43.1673 40.6581 42.7591 40.2565 42.1575C39.8419 41.5366 39.4931 40.8267 39.21 40.0281C38.927 39.2294 38.6977 38.5529 38.5222 37.9985C38.0767 36.6649 37.6558 35.2016 37.2595 33.6087C36.8678 31.9809 36.5305 30.3514 36.2477 28.7202C35.9694 27.054 35.7666 25.5218 35.6392 24.1234C35.5364 23.0116 35.5894 22.0708 35.7983 21.3008C36.0116 20.496 36.2933 19.9393 36.6434 19.6306C36.9234 19.3837 37.2199 19.3072 37.5329 19.4012C37.8504 19.4603 38.1582 19.7131 38.4562 20.1594C38.6635 20.4699 38.8571 20.8849 39.0372 21.4044C39.2347 21.9085 39.4011 22.5325 39.5364 23.2765C39.9345 25.3302 40.2101 27.492 40.3632 29.7618C40.5338 32.0162 40.4121 34.3742 39.9981 36.8358C40.0965 37.1498 40.2011 37.5355 40.3118 37.9928C40.4271 38.4153 40.5576 38.8397 40.7033 39.2662C40.9481 39.8827 41.1936 40.3754 41.4398 40.7441C41.8415 41.3456 42.251 41.7091 42.6683 41.8344C43.0901 41.9248 43.4586 41.8311 43.7736 41.5534C44.0536 41.3064 44.2799 40.9373 44.4523 40.4461C44.6119 39.9354 44.6891 39.3432 44.6841 38.6694C44.6506 37.6198 44.5669 36.5991 44.433 35.6073C44.3036 34.5806 44.1968 33.7961 44.1127 33.2536C44.0752 32.9476 44.1177 32.7406 44.2402 32.6325C44.3277 32.5554 44.4103 32.575 44.4881 32.6914C44.5528 32.7885 44.5979 32.9183 44.6231 33.0811C44.7247 33.6081 44.8516 34.2978 45.0037 35.1503C45.1603 35.9679 45.2535 36.8569 45.2831 37.8174C45.3172 38.7431 45.2143 39.6509 44.9743 40.5408C44.7389 41.3958 44.2887 42.1166 43.6236 42.703ZM39.5862 35.7191C39.7368 34.4456 39.7987 33.0807 39.7718 31.6245C39.7319 30.149 39.6289 28.6829 39.4627 27.2262C39.301 25.7348 39.0907 24.3787 38.8317 23.158C38.7599 22.7589 38.6423 22.3538 38.4791 21.9428C38.3334 21.5163 38.1828 21.1867 38.0273 20.9538C37.8459 20.6821 37.694 20.6003 37.5715 20.7083C37.5015 20.7701 37.4483 20.9403 37.4119 21.219C37.3626 21.4783 37.3408 21.8829 37.3465 22.4328C37.3379 23.2112 37.4109 24.195 37.5656 25.3844C37.7377 26.5584 37.9399 27.7982 38.1723 29.1041C38.4047 30.4099 38.6526 31.6557 38.9161 32.8416C39.1666 34.008 39.39 34.9672 39.5862 35.7191Z" fill="black"/>
<path d="M49.1277 38.3853C48.3234 38.6991 47.5158 38.7146 46.7051 38.4319C45.916 38.1408 45.3596 37.447 45.0357 36.3505C44.7383 35.3435 44.6601 34.1761 44.8012 32.8483C44.9358 31.4981 45.2437 30.2425 45.725 29.0814C46.1306 28.0747 46.652 27.1725 47.2892 26.3749C47.9263 25.5773 48.5927 25.0428 49.2883 24.7715C49.7666 24.5849 50.2192 24.558 50.6464 24.6909C51.1018 24.8376 51.4089 25.1795 51.5675 25.7166C51.7328 26.276 51.708 26.972 51.4933 27.8044C51.2786 28.6369 50.8767 29.4924 50.2878 30.371C50.0344 30.7444 49.6908 31.1405 49.2569 31.5593C48.823 31.9781 48.3793 32.3634 47.9256 32.715C47.4652 33.0444 47.0721 33.2726 46.746 33.3998C46.7166 33.7107 46.7137 34.1112 46.7372 34.6011C46.7824 35.0826 46.8745 35.5583 47.0133 36.0282C47.1785 36.5877 47.4359 37.0488 47.7855 37.4115C48.1351 37.7743 48.6033 37.8412 49.1902 37.6122C49.9076 37.3324 50.4969 36.8654 50.9583 36.2112C51.4196 35.5571 51.786 34.8277 52.0574 34.023C52.3222 33.196 52.5109 32.3987 52.6236 31.631C52.758 30.8548 52.8569 30.2048 52.9203 29.681C52.9582 29.3168 53.0858 29.0923 53.3032 29.0075C53.4119 28.9651 53.4828 28.9998 53.5158 29.1117C53.5423 29.2012 53.5427 29.3259 53.5171 29.4856C53.4111 30.2756 53.2966 31.1189 53.1735 32.0154C53.0438 32.8895 52.839 33.7556 52.5591 34.6135C52.2725 35.449 51.8518 36.1996 51.2969 36.8652C50.7637 37.5224 50.0407 38.0291 49.1277 38.3853ZM46.7958 32.7066C47.1001 32.5879 47.5779 32.2767 48.2291 31.7731C48.8738 31.2471 49.4135 30.6122 49.8484 29.8686C50.2616 29.1334 50.5311 28.4044 50.657 27.6815C50.7762 26.9362 50.7731 26.3509 50.6475 25.9258C50.5021 25.4335 50.2554 25.2552 49.9076 25.3908C49.6468 25.4926 49.341 25.8115 48.9903 26.3477C48.6395 26.8838 48.2528 27.7085 47.8301 28.8217C47.5757 29.5199 47.3563 30.2543 47.1718 31.0251C46.9874 31.7958 46.862 32.3563 46.7958 32.7066Z" fill="black"/>
<path d="M76.1944 36.537C75.3911 36.2208 74.6002 35.8091 73.8219 35.302C73.0652 34.8035 72.3428 34.2182 71.6545 33.546C70.5392 32.4298 69.7571 31.2316 69.3082 29.9515C68.8507 28.6931 68.6725 27.3942 68.7736 26.0548C68.8746 24.7153 69.1816 23.3943 69.6944 22.0916C70.233 20.7238 70.9343 19.4201 71.7985 18.1805C72.6844 16.9495 73.6749 15.8349 74.7701 14.8367C75.8738 13.8168 76.9979 12.9679 78.1424 12.2901C78.2127 11.6657 78.3389 10.9631 78.5209 10.1822C78.7247 9.40981 78.9762 8.64368 79.2754 7.88378C79.7284 6.73309 80.2904 5.68796 80.9612 4.74839C81.1677 4.47863 81.3795 4.38649 81.5966 4.47196C81.7486 4.5318 81.7819 4.67027 81.6964 4.88739C81.6451 5.01765 81.5958 5.11108 81.5484 5.16767C81.3768 5.47624 81.2009 5.79567 81.0207 6.12595C80.8622 6.46478 80.7103 6.81874 80.565 7.18783C80.2744 7.92602 80.0314 8.67044 79.8362 9.4211C79.641 10.1718 79.4779 10.8724 79.3472 11.5231C81.7441 10.0845 84.1596 9.26762 86.5937 9.07241C89.058 8.86403 91.4192 9.20434 93.6771 10.0933C94.2633 10.3241 94.815 10.5789 95.3321 10.8578C96.9921 11.737 98.2432 12.7311 99.0855 13.8401C99.9364 14.9274 100.434 16.0512 100.579 17.2117C100.746 18.3807 100.62 19.4971 100.201 20.561C99.7907 21.6031 99.1458 22.5403 98.2664 23.3727C97.387 24.2051 96.3247 24.8651 95.0794 25.3529C93.8428 25.8189 92.4596 26.0517 90.9301 26.0514C89.4308 26.0378 87.8562 25.7063 86.2061 25.0566C85.837 24.9113 85.4722 24.7551 85.1117 24.5881C84.7511 24.4211 84.3666 24.2195 83.958 23.9834C82.3454 23.0476 81.0001 21.8785 79.9223 20.4762C78.8444 19.0738 78.2174 17.3224 78.0414 15.2219C77.7822 15.3706 77.3681 15.7216 76.7992 16.275C76.2388 16.8067 75.6229 17.4795 74.9513 18.2934C74.2798 19.1073 73.6175 20.0251 72.9645 21.0469C72.32 22.047 71.7797 23.1007 71.3438 24.208C70.9249 25.2718 70.66 26.3587 70.5491 27.4685C70.4467 28.5566 70.5975 29.6066 71.0017 30.6183C71.3972 31.6517 72.1194 32.588 73.1682 33.4272C73.6861 33.8317 74.2427 34.2013 74.8381 34.5361C75.4336 34.8708 76.0569 35.1664 76.7083 35.4228C77.9675 35.9186 79.28 36.2473 80.6458 36.4088C82.0115 36.5704 83.3503 36.5458 84.662 36.335C86.3981 36.0656 87.8598 35.5377 89.047 34.7513C90.2429 33.9432 91.4357 32.9835 92.6256 31.8721C92.7979 31.6892 92.9601 31.6277 93.112 31.6875C93.2206 31.7302 93.245 31.8276 93.1851 31.9796C93.1424 32.0881 93.0477 32.2013 92.901 32.3191C92.0689 33.0949 91.2668 33.7947 90.4946 34.4185C89.731 35.0206 88.9127 35.5385 88.0398 35.9722C87.1669 36.4059 86.1354 36.7646 84.9454 37.0484C83.5909 37.3678 82.1575 37.5055 80.645 37.4618C79.1326 37.418 77.649 37.1097 76.1944 36.537ZM86.3441 24.133C87.8422 24.7228 89.252 25.0271 90.5737 25.0459C91.9039 25.043 93.1008 24.8372 94.1645 24.4284C95.2584 24.0065 96.1761 23.4274 96.9173 22.6911C97.6803 21.9634 98.2413 21.1436 98.6003 20.2317C98.9508 19.3415 99.0779 18.4136 98.9816 17.4479C98.8854 16.4821 98.525 15.5503 97.9005 14.6525C97.3063 13.7414 96.392 12.9427 95.1578 12.2561C94.7058 12.0029 94.2409 11.7823 93.7633 11.5942C92.2869 11.013 90.7083 10.7551 89.0275 10.8205C87.3769 10.8728 85.6998 11.2156 83.996 11.8488C82.3008 12.4603 80.6698 13.3227 79.103 14.4361C79.1192 16.6242 79.636 18.4326 80.6534 19.8612C81.6924 21.2985 83.0594 22.4761 84.7542 23.3942C85.293 23.6815 85.823 23.9278 86.3441 24.133Z" fill="black"/>
<path d="M84.5541 40.0266C83.7281 39.7043 83.202 39.1872 82.976 38.4751C82.7566 37.7406 82.7691 36.9594 83.0137 36.1315C83.3111 35.1245 83.8501 34.1618 84.6304 33.2433C85.3692 32.3836 86.2012 31.66 87.1262 31.0725C88.0512 30.485 88.9811 30.0866 89.9157 29.8772C90.8568 29.6454 91.697 29.6737 92.4361 29.962C93.2621 30.2843 93.7881 30.8014 94.0142 31.5135C94.2402 32.2256 94.2276 33.0068 93.9765 33.8572C93.6724 34.8865 93.1335 35.8492 92.3598 36.7453C91.9204 37.2477 91.3526 37.7749 90.6562 38.3268C89.9665 38.8563 89.2281 39.3044 88.4409 39.6712C88.4987 39.9682 88.6206 40.2529 88.8069 40.5252C88.9997 40.7751 89.3027 40.9806 89.7157 41.1417C90.2374 41.3453 90.7926 41.3123 91.3813 41.0428C91.9917 40.7818 92.5851 40.4144 93.1614 39.9404C93.7444 39.4441 94.2839 38.9309 94.7799 38.4006C95.2759 37.8704 95.6812 37.4421 95.9959 37.1156C96.1007 37.0068 96.2292 36.982 96.3814 37.0414C96.4684 37.0753 96.5204 37.1455 96.5374 37.252C96.561 37.3361 96.5171 37.4437 96.4056 37.5749C96.1761 37.8597 95.81 38.2784 95.3073 38.831C94.8113 39.3612 94.2402 39.8996 93.5939 40.4461C92.9543 40.9702 92.2791 41.3681 91.5685 41.64C90.8579 41.9118 90.1548 41.912 89.4592 41.6406C88.981 41.4541 88.5911 41.2146 88.2896 40.9223C87.9946 40.6076 87.7748 40.2848 87.6302 39.9538C87.0679 40.1338 86.5288 40.2354 86.0128 40.2587C85.4968 40.2821 85.0106 40.2047 84.5541 40.0266ZM85.2613 39.4789C85.8483 39.7079 86.5646 39.6629 87.4103 39.344C87.3157 39.0076 87.2679 38.677 87.2669 38.3522C87.2659 38.0273 87.3017 37.7419 87.3744 37.4957C87.4934 37.0929 87.6828 36.78 87.9426 36.5569C88.2242 36.3423 88.5606 36.3113 88.9519 36.464C89.2345 36.5742 89.4297 36.7752 89.5375 37.0668C89.6736 37.3445 89.7021 37.6176 89.6227 37.8862C89.6029 37.9533 89.5722 38.0162 89.5306 38.0748C89.5174 38.1196 89.49 38.1713 89.4485 38.2299C89.97 37.8594 90.4963 37.3909 91.0273 36.8244C92.2139 35.5154 92.9593 34.3463 93.2633 33.3169C93.4153 32.8022 93.4365 32.3613 93.3268 31.994C93.2171 31.6268 92.9666 31.3669 92.5753 31.2142C92.1188 31.0362 91.5593 31.0425 90.8969 31.2333C90.2562 31.4326 89.5868 31.7703 88.8885 32.2466C88.212 32.7314 87.5667 33.3157 86.9526 33.9995C86.38 34.6246 85.8793 35.2529 85.4504 35.8841C85.0499 36.5015 84.7736 37.0676 84.6216 37.5822C84.4894 38.0298 84.4706 38.4218 84.5651 38.7581C84.6597 39.0945 84.8918 39.3348 85.2613 39.4789Z" fill="black"/>
<path d="M97.1683 49.0529C96.6026 48.7757 96.2308 48.2458 96.0528 47.4633C96.0071 47.2348 95.9903 46.9562 96.0024 46.6274C96.0145 46.2985 96.0796 45.957 96.1976 45.6028C96.264 45.4036 96.3409 45.2095 96.4282 45.0205C96.523 44.8095 96.6386 44.6086 96.7753 44.4181C96.3196 44.7613 95.7932 45.1342 95.1959 45.5368C94.6269 45.9275 94.0172 46.221 93.3668 46.4173C92.7447 46.6017 92.1299 46.545 91.5222 46.2472C91.3127 46.1445 91.1038 46.0035 90.8954 45.8241C90.3888 45.3698 90.0835 44.8597 89.9796 44.2937C89.8967 43.738 89.9585 43.1503 90.1651 42.5305C90.3938 41.8443 90.7704 41.1532 91.2948 40.4574C91.8401 39.7719 92.441 39.1393 93.0973 38.5596C93.7745 37.9902 94.4254 37.5366 95.0498 37.1988C95.9366 36.7321 96.8661 36.4666 97.8381 36.4022C98.8102 36.3378 99.7153 36.511 100.553 36.9217C101.308 37.2914 101.95 37.8508 102.48 38.6C103.001 38.1342 103.565 37.6123 104.172 37.0342C104.787 36.434 105.397 35.8449 106.004 35.2668C106.611 34.6887 107.154 34.1565 107.633 33.6702C108.12 33.1617 108.491 32.7774 108.749 32.5173C109.321 31.8965 109.777 31.5533 110.116 31.4876C110.483 31.41 110.865 31.4687 111.264 31.6638C111.494 31.7768 111.734 31.9332 111.985 32.1331C112.263 32.3211 112.542 32.4708 112.822 32.5822C112.652 32.6534 112.261 32.9124 111.649 33.3592C111.065 33.7942 110.349 34.3704 109.501 35.0876C108.652 35.8049 107.729 36.6013 106.73 37.4767C105.76 38.3403 104.782 39.226 103.797 40.1338C102.84 41.0298 101.934 41.8858 101.077 42.7019C100.248 43.5061 99.5615 44.2127 99.0173 44.8216C98.8745 44.9576 98.6271 45.2612 98.275 45.7325C97.9513 46.1919 97.723 46.6208 97.5902 47.0192C97.4943 47.307 97.4723 47.5924 97.5242 47.8754C97.5835 48.1362 97.7599 48.3385 98.0532 48.4823C98.4513 48.6774 98.9195 48.6622 99.4578 48.4367C100.024 48.1993 100.6 47.8632 101.183 47.4282C101.774 46.9711 102.316 46.5155 102.809 46.0616C103.309 45.5856 103.691 45.2064 103.956 44.9241C104.142 44.7319 104.308 44.6718 104.454 44.7437C104.58 44.8053 104.61 44.9357 104.543 45.1349C104.536 45.1571 104.521 45.2013 104.499 45.2677C104.484 45.312 104.445 45.3571 104.381 45.403C104.038 45.7754 103.584 46.2226 103.02 46.7445C102.477 47.2767 101.871 47.7781 101.202 48.2487C100.534 48.7193 99.8494 49.0535 99.1497 49.2514C98.4573 49.4271 97.7969 49.361 97.1683 49.0529ZM92.0632 45.3921C92.3565 45.5359 92.7785 45.5495 93.3292 45.4331C93.8872 45.2946 94.5431 44.9722 95.2968 44.466C96.1786 43.8681 97.2179 43.0899 98.4149 42.1314C99.6118 41.1729 100.824 40.1318 102.052 39.008C101.868 38.6089 101.598 38.3221 101.242 38.1475C100.655 37.86 99.8992 37.8243 98.974 38.0404C98.0698 38.2668 97.1244 38.6534 96.1379 39.1999C95.1723 39.7568 94.3078 40.3761 93.5443 41.0577C93.0235 41.5235 92.6049 41.9751 92.2885 42.4123C91.9931 42.8598 91.7827 43.2717 91.6573 43.6481C91.3622 44.5335 91.4975 45.1149 92.0632 45.3921Z" fill="black"/>
<path d="M98.3071 53.3368C97.8732 52.5905 97.7023 51.7442 97.7947 50.798C97.8987 49.8719 98.4041 49.0607 99.311 48.3644C100.144 47.7249 101.161 47.2647 102.363 46.9837C103.583 46.6885 104.754 46.6067 105.874 46.7383C106.844 46.8401 107.743 47.0978 108.572 47.5113C109.402 47.9249 110.004 48.4544 110.379 49.0999C110.637 49.5437 110.749 50.0122 110.715 50.5055C110.673 51.0331 110.431 51.4675 109.987 51.8085C109.524 52.1638 108.904 52.363 108.126 52.4061C107.348 52.4491 106.513 52.3024 105.621 51.9659C105.242 51.8196 104.824 51.5856 104.37 51.2637C103.915 50.9419 103.488 50.5987 103.088 50.2343C102.708 49.8556 102.429 49.515 102.253 49.2124C101.973 49.2821 101.618 49.4086 101.189 49.5919C100.772 49.7955 100.369 50.0465 99.9806 50.3449C99.5179 50.7002 99.1602 51.1208 98.9073 51.6067C98.6545 52.0926 98.6864 52.6079 99.003 53.1526C99.3901 53.8182 99.9177 54.2884 100.586 54.563C101.254 54.8376 101.971 54.9878 102.735 55.0135C103.518 55.025 104.26 54.9658 104.961 54.8361C105.674 54.7266 106.268 54.6205 106.743 54.5178C107.073 54.4399 107.296 54.5018 107.413 54.7035C107.472 54.8044 107.455 54.8903 107.363 54.9614C107.289 55.0182 107.179 55.059 107.032 55.0838C106.313 55.2277 105.545 55.3799 104.728 55.5403C103.93 55.6865 103.124 55.7509 102.311 55.7334C101.516 55.7018 100.77 55.5012 100.073 55.1317C99.3885 54.7823 98.7997 54.184 98.3071 53.3368ZM102.876 49.0405C103.04 49.3229 103.409 49.7259 103.981 50.2494C104.571 50.7588 105.238 51.1223 105.98 51.3401C106.711 51.5377 107.408 51.5859 108.072 51.4846C108.754 51.3691 109.271 51.1763 109.623 50.9063C110.03 50.5937 110.14 50.276 109.952 49.9532C109.811 49.7112 109.47 49.492 108.927 49.2958C108.385 49.0996 107.58 48.9588 106.513 48.8735C105.846 48.8313 105.154 48.8377 104.437 48.8927C103.719 48.9477 103.199 48.9969 102.876 49.0405Z" fill="black"/>
<circle cx="69" cy="48" r="10" fill="#2F3E46"/>
<circle cx="38" cy="81" r="7" fill="#2F3E46"/>
<circle cx="48" cy="99" r="6" fill="#2F3E46" fill-opacity="0.8"/>
<circle cx="69" cy="105" r="6" fill="#2F3E46" fill-opacity="0.7"/>
<circle cx="88" cy="93" r="6" fill="#2F3E46" fill-opacity="0.5"/>
<circle cx="94" cy="77" r="4" fill="#2F3E46" fill-opacity="0.4"/>
<circle cx="88.5" cy="61.5" r="2.5" fill="#2F3E46" fill-opacity="0.2"/>
<circle cx="47" cy="58" r="9" fill="#2F3E46"/>
</svg>
