<svg width="50" height="50" viewBox="0 0 50 50" fill="none" xmlns="http://www.w3.org/2000/svg">
<path d="M48.75 43.75H42.5V11.079C42.5 8.41691 40.818 6.24992 38.75 6.24992H30V12.4999H37.5V50H48.75C49.4406 50 50 49.3008 50 48.4375V45.3125C50 44.4492 49.4406 43.75 48.75 43.75ZM24.3937 0.0985379L9.39375 4.95597C8.28047 5.31632 7.5 6.61125 7.5 8.09758V43.75H1.25C0.559375 43.75 0 44.4492 0 45.3125V48.4375C0 49.3008 0.559375 50 1.25 50H27.5V3.24015C27.5 1.13272 25.9719 -0.413182 24.3937 0.0985379ZM20.625 28.125C19.5898 28.125 18.75 26.7255 18.75 25C18.75 23.2744 19.5898 21.8749 20.625 21.8749C21.6602 21.8749 22.5 23.2744 22.5 25C22.5 26.7255 21.6602 28.125 20.625 28.125Z" fill="#654A75"/>
</svg>
